<svg width="24" height="24" viewBox="0 0 24 24" fill="none" xmlns="http://www.w3.org/2000/svg">
<path d="M10.4205 1.54523C10.9815 0.471251 12.5185 0.471249 13.0795 1.54523L15.7744 6.70405C15.9193 6.98144 16.1857 7.175 16.4943 7.22709L22.2333 8.19587C23.4281 8.39755 23.9031 9.85934 23.055 10.7248L18.9815 14.8819C18.7624 15.1054 18.6607 15.4186 18.7065 15.7282L19.5586 21.4857C19.736 22.6844 18.4925 23.5878 17.4074 23.0487L12.1949 20.4591C11.9146 20.3199 11.5853 20.3199 11.3051 20.4591L6.09262 23.0487C5.00748 23.5878 3.764 22.6844 3.9414 21.4857L4.79351 15.7282C4.83933 15.4186 4.73757 15.1054 4.51853 14.8819L0.444953 10.7248C-0.403101 9.85934 0.0718626 8.39755 1.26665 8.19587L7.00572 7.22709C7.31431 7.175 7.58072 6.98144 7.72563 6.70405L10.4205 1.54523Z" fill="#8E8E8E"/>
</svg>
